<?xml version="1.0" encoding="utf-8"?>
<svg viewBox="0 0 120 30" xmlns="http://www.w3.org/2000/svg" xmlns:bx="https://boxy-svg.com">
  <defs>
    <linearGradient id="color-0" gradientUnits="userSpaceOnUse" bx:pinned="true">
      <stop style="stop-color: rgb(238, 0, 0);"/>
    </linearGradient>
    <style bx:fonts="Archivo Black">@import url(https://fonts.googleapis.com/css2?family=Archivo+Black%3Aital%2Cwght%400%2C400&amp;display=swap);</style>
  </defs>
  <g id="Logos-/-F1-logo-red" stroke="none" stroke-width="1" fill="none" fill-rule="evenodd" style="transform-origin: 59.9999px 15px;" transform="matrix(0.869188010693, 0, 0, 1, -7.848724143526, 0)">
    <g id="Page-1">
      <path d="M101.086812,30 L101.711812,30 L101.711812,27.106875 L101.722437,27.106875 L102.761812,30 L103.302437,30 L104.341812,27.106875 L104.352437,27.106875 L104.352437,30 L104.977437,30 L104.977437,26.25125 L104.063687,26.25125 L103.055562,29.18625 L103.044937,29.18625 L102.011187,26.25125 L101.086812,26.25125 L101.086812,30 Z M97.6274375,26.818125 L98.8136875,26.818125 L98.8136875,30 L99.4699375,30 L99.4699375,26.818125 L100.661812,26.818125 L100.661812,26.25125 L97.6274375,26.25125 L97.6274375,26.818125 Z M89.9999375,30 L119.999937,0 L101.943687,0 L71.9443125,30 L89.9999375,30 Z M85.6986875,13.065 L49.3818125,13.065 C38.3136875,13.065 36.3768125,13.651875 31.6361875,18.3925 C27.2024375,22.82625 20.0005625,30 20.0005625,30 L35.7324375,30 L39.4855625,26.246875 C41.9530625,23.779375 43.2255625,23.52375 48.4068125,23.52375 L75.2405625,23.52375 L85.6986875,13.065 Z M31.1518125,16.253125 C27.8774375,19.3425 20.7530625,26.263125 16.9130625,30 L-6.25e-05,30 C-6.25e-05,30 13.5524375,16.486875 21.0849375,9.0725 C28.8455625,1.685 32.7143125,0 46.9486875,0 L98.7643125,0 L87.5449375,11.21875 L48.0011875,11.21875 C37.9993125,11.21875 35.7518125,11.911875 31.1518125,16.253125 Z" id="Fill-1" fill="#EE0000"/>
    </g>
  </g>
  <text style="fill: url('#color-0'); font-family: 'Archivo Black'; font-size: 15.23px; white-space: pre; transform-origin: 106.746px 14.0796px;" transform="matrix(3.291485071182, 0, -2.409441947937, 2.871005058289, -16.382412970474, 2.718317171177)"><tspan x="101.667" y="18.703">B</tspan><tspan x="101.667" dy="1em">​</tspan></text>
</svg>